<svg width="60" height="60" viewBox="0 0 60 60" fill="none" xmlns="http://www.w3.org/2000/svg">
<path d="M13.125 51.6211V41.0742L23.5547 38.0273L32.5781 41.0156L33.5156 43.125L36.5039 42.8906L48.8672 36.7383L51.5039 36.0938L53.1445 37.3242V39.8438L36.5039 51.5039L30.5859 53.1445L23.5547 52.5586L13.125 51.6211Z" fill="white" stroke="black"/>
<path d="M12.1875 39.7266H6.91406V54.0234H12.1875V39.7266Z" fill="white" stroke="black"/>
<path d="M28.2422 11.4258V6.26953H33.1641L32.7539 11.4258L30.2344 12.4805L28.2422 11.4258Z" fill="white" stroke="black"/>
<path d="M11.0156 8.84766V31.8164H49.9219V8.84766H33.1641V11.4844L30.5859 12.5977L28.5938 11.4844L27.6562 8.84766H11.0156Z" fill="white" stroke="black"/>
<path d="M52.8516 35.7422C53.6728 36.3711 54.0941 37.1899 54.2578 38.2031C54.3172 38.9778 54.314 39.6285 53.9062 40.3125C53.3643 40.9321 52.733 41.4227 52.0679 41.9019C51.9717 41.9719 51.8755 42.042 51.7764 42.1142C49.0346 44.1031 46.2217 45.9938 43.4136 47.8873C43.0122 48.158 42.611 48.4289 42.2106 48.701C37.3216 52.0229 32.6806 54.9404 26.6016 53.7891C26.1922 53.7045 25.7833 53.6175 25.3745 53.5306C21.4314 52.7019 17.4913 52.6596 13.4766 52.6172C13.4782 52.7263 13.4782 52.7263 13.4799 52.8377C13.4808 52.9329 13.4816 53.0282 13.4825 53.1263C13.4842 53.2681 13.4842 53.2681 13.4859 53.4127C13.4747 53.7235 13.4118 53.9167 13.2422 54.1772C13.1987 54.2493 13.1552 54.3214 13.1103 54.3956C12.5552 54.9357 11.9111 55.1311 11.1503 55.1403C11.007 55.1383 11.007 55.1383 10.8609 55.1363C10.7598 55.1364 10.6588 55.1366 10.5547 55.1368C10.3426 55.1366 10.1304 55.1352 9.9183 55.1328C9.59476 55.1294 9.27145 55.1304 8.9479 55.1319C8.74084 55.1312 8.53377 55.1302 8.32671 55.1289C8.23075 55.1293 8.13479 55.1296 8.03592 55.13C7.36145 55.1189 6.85685 54.9981 6.34414 54.5251C6.2881 54.4563 6.23205 54.3874 6.17431 54.3164C6.11675 54.2475 6.0592 54.1786 5.9999 54.1077C5.75115 53.7511 5.72713 53.4368 5.72494 53.016C5.7241 52.9054 5.72326 52.7949 5.72239 52.681C5.72208 52.5599 5.72176 52.4388 5.72144 52.3141C5.72067 52.1864 5.7199 52.0587 5.71911 51.9271C5.71679 51.5036 5.71542 51.0801 5.71426 50.6566C5.71378 50.512 5.7133 50.3674 5.71281 50.2184C5.71061 49.5319 5.70891 48.8453 5.70793 48.1588C5.70679 47.3678 5.70371 46.5768 5.69897 45.7858C5.695 45.0996 5.69362 44.4134 5.69314 43.7272C5.69257 43.4359 5.69121 43.1446 5.68904 42.8533C5.68618 42.4451 5.68629 42.0371 5.68711 41.6289C5.6856 41.509 5.6841 41.3891 5.68256 41.2656C5.68778 40.5448 5.77931 39.969 6.21093 39.375C6.89407 38.8313 7.44463 38.7686 8.29238 38.7611C8.3937 38.7602 8.49503 38.7592 8.59942 38.7583C8.81406 38.7567 9.02871 38.7554 9.24336 38.7545C9.46191 38.7531 9.68046 38.7507 9.89899 38.7473C10.2155 38.7422 10.532 38.7404 10.8485 38.7392C10.9934 38.7361 10.9934 38.7361 11.1412 38.733C11.811 38.7354 12.3363 38.8693 12.8906 39.2578C13.1434 39.5361 13.3594 39.8053 13.3594 40.1953C15.0957 39.8115 16.6866 39.3426 18.2812 38.5547C20.8009 37.3223 22.8729 36.92 25.5615 37.7637C25.7358 37.8163 25.9101 37.8688 26.0844 37.921C26.4536 38.0322 26.8223 38.145 27.1906 38.259C27.6949 38.4144 28.2007 38.5638 28.7072 38.7115C29.1231 38.8331 29.5384 38.9564 29.9536 39.0801C30.1535 39.1394 30.3537 39.1982 30.554 39.2565C31.8378 39.6313 32.976 39.9729 33.7554 41.1407C33.883 41.3993 33.9426 41.6393 33.9999 41.9215C34.0194 42.0155 34.0389 42.1095 34.059 42.2064C34.0801 42.313 34.0801 42.313 34.1016 42.4219C38.9183 41.3311 43.44 38.8023 47.7253 36.4152C49.3134 35.5312 51.129 34.6225 52.8516 35.7422ZM47.9432 38.1757C47.6121 38.3545 47.2802 38.5317 46.9483 38.7089C46.6945 38.8445 46.4409 38.9802 46.1872 39.116C38.6064 43.1726 38.6064 43.1726 34.9219 43.8867C34.0371 44.0588 33.5363 44.2185 33.0034 44.989C32.6502 45.443 32.1827 45.5709 31.6406 45.7031C30.6284 45.8153 29.7548 45.5729 28.7974 45.2673C28.5771 45.1998 28.3567 45.1322 28.1363 45.0647C27.8309 44.9708 27.5261 44.8752 27.2212 44.7796C26.6864 44.6119 26.1512 44.4451 25.6153 44.2807C25.3309 44.1933 25.047 44.1047 24.7634 44.0147C23.7453 43.7011 22.9601 43.6531 21.9118 43.8368C21.6797 43.8281 21.6797 43.8281 21.476 43.6766C21.2503 43.3713 21.2821 43.1417 21.3281 42.7734C21.5207 42.4364 21.7253 42.4067 22.0972 42.2827C23.7214 41.9384 25.2532 42.5612 26.792 43.0353C26.9004 43.0687 27.0088 43.1021 27.1204 43.1365C27.5697 43.2752 28.019 43.4141 28.4677 43.5546C28.7999 43.6584 29.1326 43.7608 29.4653 43.8629C29.5658 43.8948 29.6663 43.9266 29.7698 43.9594C30.4795 44.1757 31.0969 44.3403 31.7871 43.9819C32.2523 43.5908 32.4349 43.3292 32.5122 42.7222C32.4487 42.2053 32.3436 41.9872 31.9922 41.6016C31.1702 41.1274 30.216 40.8963 29.3129 40.6297C29.1579 40.5834 29.0028 40.5371 28.8479 40.4907C28.4431 40.3697 28.0381 40.2496 27.633 40.1296C27.302 40.0315 26.9712 39.9327 26.6404 39.8339C25.9565 39.6296 25.2725 39.4258 24.5882 39.2229C24.4675 39.1871 24.3468 39.1513 24.2224 39.1145C23.7145 38.9682 23.273 38.8821 22.7417 38.8696C22.6222 38.8652 22.5027 38.8609 22.3796 38.8564C21.1421 38.989 20.0446 39.5133 18.9477 40.0708C17.8319 40.6212 16.7857 41.04 15.5859 41.3672C14.5418 41.6572 14.5418 41.6572 13.4766 41.9531C13.4766 44.9309 13.4766 47.9086 13.4766 50.9766C14.3612 50.9911 15.2458 51.0056 16.1572 51.0205C19.8746 51.0929 23.4345 51.3926 27.0745 52.1879C31.4305 53.1361 35.0559 51.371 38.6471 49.0691C40.4257 47.9162 42.174 46.7165 43.9261 45.524C44.2744 45.2872 44.623 45.0509 44.9716 44.8146C46.3576 43.8741 47.7328 42.9186 49.1016 41.9531C49.1795 41.8983 49.2574 41.8435 49.3377 41.787C51.1016 40.654 51.1016 40.654 52.6172 39.2578C52.7052 38.516 52.5659 38.0015 52.1484 37.3828C51.8075 37.004 51.6377 36.9243 51.1304 36.8555C49.9901 36.9215 48.9266 37.6441 47.9432 38.1757ZM7.3828 40.6641C7.34729 40.8965 7.34729 40.8965 7.35304 41.1667C7.35238 41.2722 7.35172 41.3777 7.35104 41.4864C7.35151 41.6024 7.35199 41.7184 7.35248 41.838C7.35207 41.96 7.35166 42.0819 7.35123 42.2076C7.3502 42.6123 7.35089 43.0169 7.35168 43.4216C7.35152 43.7019 7.35129 43.9821 7.351 44.2623C7.35065 44.8503 7.35116 45.4382 7.35225 46.0261C7.35358 46.7812 7.35282 47.5363 7.35141 48.2913C7.35057 48.8702 7.35083 49.449 7.35144 50.0279C7.3516 50.3064 7.35141 50.5848 7.35086 50.8633C7.35027 51.252 7.35117 51.6406 7.35248 52.0292C7.352 52.1452 7.35153 52.2613 7.35104 52.3808C7.3517 52.4863 7.35236 52.5918 7.35304 52.7005C7.35313 52.7924 7.35322 52.8844 7.35331 52.9791C7.36339 53.2313 7.36339 53.2313 7.61718 53.4375C7.91689 53.4609 8.20363 53.4703 8.50341 53.4686C8.59096 53.4689 8.67851 53.4691 8.76871 53.4693C8.95391 53.4695 9.1391 53.469 9.3243 53.4681C9.60825 53.4668 9.89212 53.468 10.1761 53.4695C10.3558 53.4694 10.5356 53.4691 10.7153 53.4686C10.8431 53.4693 10.8431 53.4693 10.9735 53.4701C11.458 53.4805 11.458 53.4805 11.8359 53.2031C11.8714 52.9707 11.8714 52.9707 11.8657 52.7005C11.8667 52.5423 11.8667 52.5423 11.8677 52.3808C11.8672 52.2648 11.8667 52.1487 11.8663 52.0292C11.8667 51.9072 11.8671 51.7853 11.8675 51.6596C11.8685 51.2549 11.8678 50.8503 11.8671 50.4456C11.8672 50.1653 11.8674 49.8851 11.8677 49.6049C11.8681 49.0169 11.8676 48.429 11.8665 47.8411C11.8652 47.086 11.8659 46.3309 11.8673 45.5758C11.8682 44.997 11.8679 44.4181 11.8673 43.8393C11.8671 43.5608 11.8673 43.2823 11.8679 43.0039C11.8685 42.6152 11.8676 42.2266 11.8663 41.838C11.8667 41.722 11.8672 41.6059 11.8677 41.4864C11.867 41.3809 11.8664 41.2754 11.8657 41.1667C11.8656 41.0288 11.8656 41.0288 11.8654 40.8881C11.8553 40.6359 11.8553 40.6359 11.6016 40.4297C11.3018 40.4063 11.0151 40.3969 10.7153 40.3986C10.6278 40.3983 10.5402 40.3981 10.45 40.3979C10.2648 40.3977 10.0796 40.3982 9.89444 40.3991C9.61048 40.4004 9.32661 40.3991 9.04266 40.3976C8.86291 40.3978 8.68316 40.3981 8.50341 40.3986C8.4182 40.3981 8.33299 40.3976 8.2452 40.3971C7.76077 40.3866 7.76077 40.3866 7.3828 40.6641Z" fill="black"/>
<path d="M28.3356 4.85936C28.4467 4.85751 28.5577 4.85565 28.6722 4.85374C28.8509 4.85461 28.8509 4.85461 29.0332 4.8555C29.1563 4.85477 29.2794 4.85405 29.4062 4.8533C29.6662 4.85247 29.9263 4.85284 30.1863 4.85433C30.5845 4.85595 30.9824 4.85196 31.3806 4.84749C31.6333 4.84738 31.886 4.8476 32.1387 4.84818C32.2578 4.84662 32.377 4.84507 32.4997 4.84347C32.6663 4.84567 32.6663 4.84567 32.8363 4.84792C32.9338 4.84803 33.0313 4.84814 33.1317 4.84826C33.3985 4.92188 33.3985 4.92188 33.6661 5.15126C33.9441 5.64421 33.9193 6.04416 33.8965 6.59912C33.8944 6.69709 33.8923 6.79505 33.8901 6.89598C33.8846 7.13644 33.8762 7.37683 33.8672 7.61719C33.946 7.61676 34.0247 7.61632 34.1058 7.61588C36.0249 7.60551 37.944 7.59776 39.8632 7.5929C40.7913 7.59049 41.7193 7.5872 42.6474 7.58183C43.4567 7.57714 44.2659 7.57413 45.0751 7.57308C45.5033 7.57248 45.9315 7.57105 46.3597 7.56763C46.8386 7.56383 47.3174 7.56376 47.7962 7.56397C47.9371 7.56229 48.0779 7.5606 48.2231 7.55887C49.1686 7.5635 49.9221 7.69952 50.6648 8.31207C50.7266 8.3873 50.7884 8.46253 50.8521 8.54004C50.9479 8.65198 50.9479 8.65198 51.0457 8.76618C51.4222 9.35238 51.4798 9.94066 51.4775 10.6218C51.4781 10.7097 51.4787 10.7975 51.4793 10.888C51.4811 11.181 51.4812 11.4741 51.4812 11.7672C51.4821 11.9778 51.4831 12.1884 51.4842 12.3991C51.4868 12.9705 51.4878 13.5419 51.4884 14.1134C51.4888 14.4707 51.4895 14.828 51.4904 15.1853C51.4932 16.4328 51.4948 17.6803 51.4952 18.9277C51.4956 20.0891 51.4991 21.2504 51.504 22.4117C51.5081 23.4099 51.5099 24.4081 51.51 25.4064C51.5101 26.0021 51.5111 26.5977 51.5144 27.1934C51.5175 27.754 51.5178 28.3145 51.5159 28.8751C51.5157 29.0802 51.5165 29.2853 51.5183 29.4904C51.5276 30.5766 51.5305 31.5451 50.8594 32.4609C50.5838 32.7251 50.5838 32.7251 50.3174 32.8784C50.2289 32.9317 50.1404 32.9851 50.0491 33.04C49.6243 33.2556 49.2936 33.2962 48.8238 33.2973C48.6267 33.2982 48.6267 33.2982 48.4256 33.2991C48.2806 33.2992 48.1356 33.2992 47.9862 33.2993C47.8326 33.2998 47.6791 33.3003 47.5209 33.3008C47.0937 33.3022 46.6665 33.3029 46.2393 33.3034C45.779 33.3041 45.3186 33.3055 44.8582 33.3068C43.7458 33.3096 42.6334 33.3113 41.521 33.3129C41.2068 33.3133 40.8926 33.3138 40.5784 33.3142C38.6273 33.3172 36.6762 33.3198 34.7251 33.3212C34.2731 33.3216 33.8211 33.3219 33.3691 33.3223C33.2568 33.3224 33.1444 33.3225 33.0287 33.3225C31.2093 33.324 29.3899 33.3279 27.5705 33.3328C25.7025 33.3378 23.8345 33.3405 21.9665 33.3411C20.9177 33.3415 19.869 33.3429 18.8202 33.3468C17.9269 33.3501 17.0336 33.3514 16.1402 33.35C15.6846 33.3494 15.229 33.3498 14.7734 33.3527C14.3558 33.3553 13.9382 33.3552 13.5206 33.353C13.2991 33.3525 13.0775 33.3549 12.856 33.3574C11.9627 33.3491 11.2952 33.1985 10.5469 32.6953C10.2828 32.4197 10.2828 32.4197 10.1294 32.1533C10.0761 32.0648 10.0228 31.9763 9.96782 31.8851C9.71954 31.3958 9.70919 30.9655 9.70933 30.4301C9.7089 30.3419 9.70847 30.2537 9.70802 30.1629C9.70673 29.8665 9.70628 29.5702 9.70583 29.2739C9.7051 29.0618 9.70432 28.8497 9.7035 28.6375C9.70103 27.9401 9.69982 27.2427 9.69865 26.5453C9.69818 26.3052 9.6977 26.0651 9.69721 25.825C9.69497 24.697 9.69331 23.5689 9.69233 22.4409C9.69118 21.1389 9.6881 19.837 9.68336 18.535C9.67983 17.5286 9.67809 16.5222 9.67771 15.5158C9.67743 14.9148 9.67638 14.3138 9.67343 13.7127C9.6707 13.1471 9.67021 12.5814 9.67141 12.0157C9.67147 11.8084 9.67073 11.6012 9.66912 11.3939C9.65378 9.30112 9.65378 9.30112 10.4215 8.40912C10.4967 8.34598 10.5719 8.28283 10.6494 8.21777C10.7241 8.15282 10.7987 8.08786 10.8756 8.02094C11.3887 7.68308 11.9014 7.58785 12.5078 7.589C12.6389 7.58868 12.77 7.58836 12.9051 7.58803C13.1183 7.58929 13.1183 7.58929 13.3358 7.59058C13.4867 7.59055 13.6377 7.59051 13.7933 7.59048C14.2058 7.59041 14.6183 7.59179 15.0308 7.59342C15.4625 7.59489 15.8942 7.59503 16.3258 7.59531C17.1426 7.59603 17.9593 7.59795 18.7761 7.60031C19.7062 7.60293 20.6364 7.60422 21.5665 7.60539C23.4792 7.60784 25.392 7.61196 27.3047 7.61719C27.3022 7.55219 27.2998 7.4872 27.2973 7.42024C27.2875 7.12458 27.2814 6.82896 27.2754 6.5332C27.2715 6.43093 27.2675 6.32867 27.2635 6.2233C27.252 5.46975 27.252 5.46975 27.5058 5.08875C27.8112 4.89833 27.9777 4.86203 28.3356 4.85936ZM28.9453 6.5625C28.9372 7.08375 28.9302 7.60478 28.926 8.12605C28.9243 8.30314 28.9219 8.48022 28.9188 8.65728C28.9145 8.91271 28.9125 9.16807 28.911 9.42352C28.9092 9.57695 28.9073 9.73037 28.9054 9.88844C28.9629 10.4988 29.1431 10.8769 29.5972 11.2866C30.0774 11.6191 30.4768 11.6801 31.0547 11.6016C31.6526 11.2857 32.0126 10.9545 32.2266 10.3125C32.2365 10.0264 32.2402 9.74384 32.238 9.45786C32.2378 9.33375 32.2378 9.33375 32.2375 9.20714C32.2369 8.94326 32.2354 8.6794 32.2339 8.41553C32.2333 8.23647 32.2328 8.0574 32.2323 7.87834C32.2311 7.43972 32.2288 7.00112 32.2266 6.5625C31.1438 6.5625 30.061 6.5625 28.9453 6.5625ZM11.4844 9.72656C11.3096 10.0761 11.352 10.3923 11.3515 10.7823C11.3513 10.8678 11.351 10.9534 11.3507 11.0415C11.35 11.3296 11.3501 11.6176 11.3502 11.9057C11.3498 12.1116 11.3494 12.3176 11.349 12.5235C11.3479 13.084 11.3477 13.6445 11.3476 14.205C11.3475 14.6725 11.3471 15.1399 11.3466 15.6073C11.3457 16.7099 11.3454 17.8125 11.3455 18.915C11.3456 20.0534 11.3443 21.1919 11.3425 22.3303C11.3409 23.3067 11.3403 24.2831 11.3404 25.2595C11.3404 25.8431 11.3401 26.4267 11.3388 27.0103C11.3377 27.5592 11.3377 28.108 11.3385 28.6568C11.3387 28.8585 11.3384 29.0601 11.3377 29.2617C11.3368 29.5366 11.3373 29.8115 11.3382 30.0864C11.3382 30.2403 11.3381 30.3943 11.338 30.5529C11.3656 30.9158 11.3949 31.1116 11.6016 31.4063C11.9937 31.6677 12.119 31.6702 12.5768 31.6714C12.7069 31.6723 12.8371 31.6732 12.9711 31.6742C13.1147 31.674 13.2583 31.6738 13.4062 31.6735C13.5583 31.6742 13.7103 31.6749 13.867 31.6757C14.29 31.6775 14.7129 31.678 15.1359 31.6781C15.5917 31.6786 16.0475 31.6803 16.5034 31.6819C17.5004 31.6851 18.4975 31.6865 19.4945 31.6875C20.1168 31.6882 20.7391 31.6892 21.3614 31.6902C23.0837 31.6931 24.8059 31.6955 26.5282 31.6963C26.6384 31.6964 26.7487 31.6964 26.8623 31.6965C26.9728 31.6965 27.0833 31.6966 27.1972 31.6966C27.4211 31.6967 27.6451 31.6968 27.8691 31.6969C27.9802 31.697 28.0913 31.697 28.2057 31.6971C30.0066 31.698 31.8074 31.7021 33.6083 31.7076C35.4563 31.7131 37.3043 31.716 39.1523 31.7163C40.1902 31.7165 41.2282 31.7179 42.2661 31.7221C43.1498 31.7257 44.0335 31.7269 44.9172 31.725C45.3682 31.7241 45.8192 31.7243 46.2702 31.7276C46.7588 31.7311 47.2473 31.7292 47.7359 31.7268C47.9505 31.7296 47.9505 31.7296 48.1694 31.7325C48.8319 31.7378 48.8319 31.7378 49.4373 31.5092C49.8473 31.0785 49.8781 30.6299 49.8783 30.0605C49.8792 29.9747 49.88 29.8888 49.8808 29.8004C49.8829 29.514 49.8808 29.2278 49.8787 28.9414C49.8793 28.7356 49.8801 28.5298 49.8812 28.3239C49.8834 27.7658 49.8819 27.2078 49.8795 26.6497C49.8776 26.0655 49.8787 25.4813 49.8793 24.8971C49.8798 23.9162 49.8779 22.9354 49.8747 21.9545C49.8709 20.8204 49.8709 19.6864 49.8729 18.5524C49.8748 17.4613 49.874 16.3702 49.872 15.2791C49.8712 14.8148 49.8713 14.3505 49.8722 13.8862C49.8731 13.3395 49.8717 12.7929 49.8684 12.2463C49.8676 12.0457 49.8676 11.845 49.8685 11.6444C49.8695 11.3705 49.8676 11.0969 49.865 10.823C49.8647 10.6698 49.8644 10.5166 49.864 10.3587C49.795 9.89604 49.6626 9.70319 49.336 9.375C49.0373 9.2257 48.8294 9.2434 48.495 9.24372C48.3665 9.24356 48.238 9.2434 48.1056 9.24323C47.964 9.24365 47.8224 9.24408 47.6765 9.24451C47.5279 9.24449 47.3793 9.24448 47.2261 9.24446C46.8179 9.24442 46.4097 9.24511 46.0016 9.24593C45.5752 9.24666 45.1488 9.24673 44.7225 9.24687C43.9149 9.24724 43.1072 9.2482 42.2996 9.24937C41.3802 9.25068 40.4609 9.25133 39.5415 9.25192C37.6501 9.25314 35.7586 9.2552 33.8672 9.25781C33.8451 9.43897 33.8451 9.43897 33.8226 9.6238C33.8024 9.78379 33.7822 9.94378 33.7619 10.1038C33.7523 10.1832 33.7427 10.2626 33.7329 10.3444C33.6024 11.3611 33.2735 11.9579 32.4756 12.6004C31.6721 13.1587 30.8462 13.2344 29.8828 13.125C29.0518 12.9264 28.3838 12.5428 27.8906 11.8359C27.5636 11.1947 27.4192 10.5926 27.358 9.87866C27.3479 9.76243 27.3378 9.64621 27.3273 9.52647C27.3199 9.43781 27.3124 9.34916 27.3047 9.25781C25.3285 9.24686 23.3523 9.2386 21.3761 9.23353C20.4585 9.23111 19.5409 9.22781 18.6234 9.22245C17.8236 9.21778 17.0238 9.21475 16.224 9.21371C15.8005 9.2131 15.3771 9.21166 14.9536 9.20825C14.4808 9.20448 14.0081 9.20438 13.5353 9.2046C13.395 9.20291 13.2546 9.20123 13.11 9.19949C12.1935 9.18883 12.1935 9.18883 11.4844 9.72656Z" fill="black"/>
<path d="M21.9141 11.1328C22.1732 11.3164 22.1732 11.3164 22.4268 11.5503C23.9741 12.8386 25.9715 13.5305 27.9845 13.5274C28.3787 13.6289 28.4916 13.8446 28.7109 14.1797C28.7689 14.5537 28.7689 14.5537 28.7679 14.9806C28.7683 15.0588 28.7688 15.1371 28.7692 15.2176C28.7701 15.4752 28.7676 15.7326 28.765 15.9901C28.7647 16.1704 28.7646 16.3507 28.7646 16.531C28.7643 16.9087 28.7623 17.2865 28.7592 17.6643C28.7552 18.1456 28.7543 18.6269 28.7545 19.1083C28.7544 19.4808 28.7531 19.8533 28.7514 20.2258C28.7507 20.4031 28.7502 20.5803 28.75 20.7576C28.7465 22.4744 28.5696 23.8955 27.5391 25.3125C27.4489 25.4423 27.4489 25.4423 27.3569 25.5748C26.9563 26.0272 26.488 26.3568 26.001 26.7114C25.7901 26.867 25.5794 27.0228 25.3688 27.1788C25.2621 27.2578 25.1553 27.3367 25.0453 27.418C24.4631 27.8531 23.8918 28.302 23.3205 28.7512C23.1615 28.8758 23.0021 28.9998 22.8421 29.123C22.6933 29.238 22.5459 29.3548 22.4 29.4735C22.0945 29.7118 21.8368 29.8731 21.4586 29.9648C20.8938 29.8379 20.5117 29.5099 20.061 29.1577C19.9639 29.0839 19.8668 29.0101 19.7667 28.934C19.5651 28.7805 19.3641 28.6262 19.1636 28.4712C18.8835 28.2548 18.602 28.0405 18.3197 27.827C17.9071 27.5144 17.4964 27.1994 17.0871 26.8826C16.897 26.7357 16.7061 26.5898 16.5152 26.4441C15.2704 25.478 14.4906 24.4278 14.1797 22.8516C14.1584 22.5502 14.1474 22.2479 14.1456 21.9458C14.1449 21.8607 14.1441 21.7755 14.1433 21.6879C14.141 21.4099 14.1406 21.1319 14.1403 20.8539C14.1396 20.6593 14.1388 20.4647 14.138 20.2701C14.1366 19.8639 14.1361 19.4577 14.1363 19.0515C14.1363 18.5311 14.1331 18.0107 14.129 17.4903C14.1264 17.0892 14.126 16.688 14.1261 16.2869C14.1258 16.095 14.1248 15.903 14.123 15.7111C14.1207 15.4432 14.1213 15.1755 14.1228 14.9076C14.1224 14.7554 14.1221 14.6031 14.1217 14.4462C14.1892 13.9992 14.2924 13.8626 14.6484 13.5937C14.9034 13.5176 14.9034 13.5176 15.179 13.4917C15.2807 13.4804 15.3825 13.4691 15.4873 13.4574C15.6485 13.4415 15.6485 13.4415 15.813 13.4253C17.6917 13.1975 19.2961 12.5049 20.7683 11.299C21.181 10.9697 21.4063 11.0062 21.9141 11.1328ZM20.6323 13.4399C19.285 14.2837 17.8852 14.8415 16.3019 15.0641C15.9536 15.0778 15.9536 15.0778 15.8203 15.2344C15.8068 15.4576 15.8016 15.6813 15.7996 15.9049C15.7981 16.0486 15.7966 16.1922 15.795 16.3402C15.7941 16.4986 15.7932 16.6571 15.7924 16.8155C15.7919 16.8952 15.7914 16.975 15.7909 17.0571C15.7885 17.4803 15.7868 17.9035 15.7857 18.3267C15.7844 18.761 15.7804 19.1953 15.7757 19.6296C15.7727 19.9656 15.7717 20.3016 15.7713 20.6376C15.7704 20.8746 15.7673 21.1116 15.7642 21.3485C15.7668 22.4756 15.9023 23.6029 16.7139 24.4556C16.7831 24.5309 16.8522 24.6063 16.9235 24.684C17.0981 24.8692 17.0981 24.8692 17.3437 24.8437C17.3468 24.7135 17.3498 24.5833 17.3529 24.4492C17.4095 22.7514 17.7163 21.7196 18.9844 20.5078C19.1004 20.4498 19.1004 20.4498 19.2187 20.3906C19.1934 20.3308 19.168 20.271 19.1418 20.2094C18.7689 19.2357 18.6733 18.2648 19.1016 17.2925C19.4835 16.6137 20.0182 16.296 20.7422 16.0547C21.5208 15.9893 22.2876 15.985 22.9687 16.4062C23.5836 16.9345 23.9439 17.5975 24.0564 18.3989C24.0853 19.0133 23.9016 19.4744 23.6719 20.0391C23.6719 20.1551 23.6719 20.2711 23.6719 20.3906C23.8569 20.5649 23.8569 20.5649 24.0967 20.7349C24.8335 21.3487 25.2924 22.2549 25.4297 23.2031C25.4551 23.4885 25.4769 23.7742 25.4956 24.0601C25.5054 24.207 25.5152 24.354 25.5254 24.5055C25.5325 24.6171 25.5396 24.7287 25.5469 24.8437C26.4661 24.1621 26.8793 23.396 27.0703 22.2656C27.103 21.7236 27.1004 21.1829 27.0973 20.6401C27.0973 20.4856 27.0972 20.3312 27.0972 20.172C27.097 19.8471 27.096 19.5222 27.0944 19.1973C27.0924 18.7801 27.092 18.3629 27.0921 17.9457C27.092 17.5475 27.091 17.1492 27.09 16.7509C27.0899 16.6007 27.0897 16.4504 27.0896 16.2956C27.0889 16.1579 27.0881 16.0202 27.0873 15.8782C27.0869 15.7564 27.0864 15.6346 27.086 15.5091C27.1012 15.2392 27.1012 15.2392 26.9531 15.1172C26.7595 15.0826 26.5658 15.0485 26.3715 15.0178C24.6871 14.7455 23.2802 14.1843 21.8784 13.2138C21.332 12.8575 21.149 13.1076 20.6323 13.4399ZM20.6323 17.8198C20.3281 18.2531 20.3071 18.4648 20.3906 18.9844C20.5557 19.3348 20.5557 19.3348 20.8594 19.5703C21.3186 19.7039 21.5662 19.7354 22.0093 19.5483C22.2855 19.3195 22.4043 19.2117 22.5 18.8672C22.4913 18.3788 22.4578 18.1328 22.1338 17.7612C21.5626 17.4508 21.168 17.4437 20.6323 17.8198ZM19.3625 22.4084C18.6959 23.3765 18.7372 24.7354 18.8696 25.8638C19.1718 26.8807 20.2322 27.4167 21.113 27.8967C21.184 27.9333 21.255 27.97 21.3281 28.0078C21.6768 27.8455 21.9699 27.656 22.2743 27.4214C22.3622 27.354 22.45 27.2865 22.5405 27.217C22.6764 27.1118 22.6764 27.1118 22.8149 27.0044C22.9528 26.8985 22.9528 26.8985 23.0935 26.7904C23.5145 26.4786 23.5145 26.4786 23.9062 26.1328C23.9461 25.6871 23.9444 25.2397 23.9502 24.7925C23.9546 24.6687 23.959 24.5449 23.9635 24.4173C23.974 23.4677 23.7898 22.685 23.1511 21.9551C22.5577 21.4189 21.9068 21.2697 21.129 21.292C20.3509 21.3963 19.8454 21.815 19.3625 22.4084Z" fill="black"/>
<path d="M33.6533 19.6421C33.7529 19.6409 33.8524 19.6397 33.955 19.6386C34.0639 19.6391 34.1727 19.6396 34.2849 19.6402C34.4573 19.6389 34.4573 19.6389 34.6332 19.6377C35.0138 19.6356 35.3945 19.636 35.7751 19.6367C36.0392 19.6362 36.3032 19.6355 36.5672 19.6348C37.1209 19.6338 37.6745 19.6341 38.2281 19.6352C38.9387 19.6366 39.6492 19.6342 40.3597 19.6308C40.905 19.6286 41.4502 19.6287 41.9955 19.6293C42.2576 19.6294 42.5196 19.6286 42.7816 19.6272C43.1475 19.6255 43.5133 19.6267 43.8792 19.6287C43.988 19.6276 44.0969 19.6264 44.209 19.6253C44.9397 19.6337 44.9397 19.6337 45.2422 19.9036C45.3946 20.2558 45.4148 20.4798 45.3516 20.8594C45.0183 21.2288 44.7526 21.3577 44.2676 21.3876C44.0667 21.3904 43.8658 21.3906 43.6649 21.3888C43.5549 21.3896 43.4449 21.3904 43.3316 21.3913C42.9685 21.3933 42.6055 21.392 42.2424 21.3904C41.9898 21.3907 41.7372 21.3912 41.4846 21.3917C40.9554 21.3924 40.4262 21.3914 39.897 21.3892C39.2188 21.3866 38.5407 21.3881 37.8625 21.3909C37.3409 21.3926 36.8194 21.3921 36.2978 21.3909C36.0478 21.3905 35.7977 21.3909 35.5476 21.392C35.1981 21.3932 34.8487 21.3914 34.4991 21.3888C34.3959 21.3897 34.2926 21.3907 34.1862 21.3917C33.712 21.3851 33.4564 21.3624 33.0403 21.1161C32.8125 20.8594 32.8125 20.8594 32.7539 20.4419C32.8405 19.8467 33.0544 19.644 33.6533 19.6421Z" fill="black"/>
<path d="M34.392 15.5253C34.5045 15.5245 34.617 15.5236 34.7328 15.5228C35.1047 15.5207 35.4765 15.5221 35.8484 15.5237C36.1067 15.5234 36.365 15.5229 36.6233 15.5223C37.1648 15.5216 37.7062 15.5226 38.2476 15.5248C38.942 15.5275 39.6363 15.526 40.3306 15.5231C40.8641 15.5215 41.3975 15.522 41.9309 15.5232C42.1869 15.5235 42.443 15.5231 42.699 15.522C43.0568 15.5209 43.4143 15.5227 43.7721 15.5253C43.8781 15.5243 43.9842 15.5234 44.0935 15.5224C44.8082 15.5321 44.8082 15.5321 45.1825 15.8021C45.4163 16.1514 45.4287 16.3463 45.3516 16.7578C45.0167 17.1296 44.7498 17.2563 44.2623 17.2861C44.059 17.2889 43.8557 17.2891 43.6523 17.2872C43.4853 17.2884 43.4853 17.2884 43.3149 17.2897C42.9475 17.2918 42.5801 17.2904 42.2127 17.2888C41.9572 17.2891 41.7016 17.2896 41.4461 17.2902C40.9109 17.2909 40.3757 17.2899 39.8405 17.2877C39.1542 17.285 38.4679 17.2865 37.7815 17.2893C37.254 17.291 36.7266 17.2905 36.1991 17.2893C35.946 17.289 35.6929 17.2894 35.4398 17.2904C35.0863 17.2916 34.7329 17.2898 34.3794 17.2872C34.2746 17.2882 34.1698 17.2891 34.0619 17.2901C33.3558 17.2804 33.3558 17.2804 32.9819 17.0104C32.7495 16.6639 32.7444 16.4636 32.8125 16.0547C33.2174 15.4483 33.7287 15.5193 34.392 15.5253Z" fill="black"/>
<path d="M33.661 23.7436C33.7607 23.7425 33.8604 23.7414 33.9632 23.7402C34.0705 23.7409 34.1778 23.7416 34.2883 23.7424C34.3989 23.742 34.5094 23.7417 34.6232 23.7414C34.8569 23.7411 35.0906 23.7418 35.3242 23.7432C35.6822 23.7451 36.0401 23.7432 36.3982 23.741C36.6251 23.7412 36.852 23.7417 37.0789 23.7424C37.2398 23.7413 37.2398 23.7413 37.404 23.7402C37.5038 23.7413 37.6035 23.7424 37.7062 23.7436C37.8377 23.744 37.8377 23.744 37.9719 23.7444C38.2664 23.8013 38.3687 23.9102 38.5547 24.1406C38.6928 24.4593 38.6785 24.5874 38.5767 24.9243C38.4375 25.1953 38.4375 25.1953 38.2031 25.3125C38.0423 25.3247 37.8809 25.3299 37.7195 25.3314C37.5699 25.3331 37.5699 25.3331 37.4173 25.3348C37.2554 25.3355 37.2554 25.3355 37.0903 25.3363C36.9796 25.337 36.8689 25.3376 36.7549 25.3383C36.5206 25.3394 36.2862 25.3402 36.0518 25.3407C35.6928 25.3418 35.3338 25.3454 34.9748 25.3491C34.7473 25.3499 34.5199 25.3505 34.2925 25.351C34.1848 25.3524 34.0771 25.3538 33.9662 25.3553C33.8661 25.355 33.766 25.3546 33.6628 25.3543C33.5308 25.3549 33.5308 25.3549 33.3961 25.3556C33.0956 25.2998 32.9931 25.2045 32.8125 24.9609C32.7357 24.244 32.7357 24.244 32.96 23.9421C33.2129 23.7524 33.3471 23.7446 33.661 23.7436Z" fill="black"/>
</svg>
